<?xml version="1.0" standalone="no"?>
<!DOCTYPE svg PUBLIC "-//W3C//DTD SVG 20010904//EN"
 "http://www.w3.org/TR/2001/REC-SVG-20010904/DTD/svg10.dtd">
<svg version="1.0" xmlns="http://www.w3.org/2000/svg"
 width="331.000000pt" height="331.000000pt" viewBox="0 0 331.000000 331.000000"
 preserveAspectRatio="xMidYMid meet">
<metadata>
Created by potrace 1.11, written by Peter Selinger 2001-2013
</metadata>
<g transform="translate(0.000000,331.000000) scale(0.100000,-0.100000)"
fill="#000000" stroke="none">
<path d="M207 1943 c-4 -3 -7 -136 -7 -295 l0 -288 60 0 60 0 2 188 3 187 70
-187 69 -188 56 0 56 0 71 193 72 192 0 -192 1 -193 60 0 60 0 -2 293 -3 292
-64 3 c-37 2 -69 -2 -75 -8 -6 -6 -48 -104 -93 -218 -78 -197 -82 -206 -93
-178 -48 127 -155 383 -163 394 -10 13 -128 18 -140 5z"/>
<path d="M1450 1655 l0 -295 181 0 180 0 -3 48 -3 47 -117 3 -118 3 0 74 0 75
105 0 105 0 0 50 0 50 -105 0 -105 0 0 70 0 69 118 3 117 3 3 48 3 47 -180 0
-181 0 0 -295z"/>
<path d="M1880 1655 l0 -295 180 0 180 0 0 50 0 50 -115 0 -115 0 0 75 0 75
105 0 105 0 0 50 0 50 -105 0 -105 0 0 70 0 70 115 0 115 0 0 50 0 50 -180 0
-180 0 0 -295z"/>
<path d="M2320 1655 l0 -295 156 0 c179 0 223 9 264 56 62 71 43 191 -37 233
-21 11 -31 20 -22 21 10 0 31 16 48 35 27 31 31 43 31 95 0 49 -4 64 -27 91
-44 52 -74 59 -253 59 l-160 0 0 -295z m297 169 c20 -20 24 -31 19 -57 -9 -47
-30 -57 -113 -57 l-73 0 0 70 0 70 70 0 c63 0 74 -3 97 -26z m12 -240 c28 -35
26 -69 -4 -99 -21 -22 -33 -25 -100 -25 l-75 0 0 75 0 75 79 0 c74 0 81 -2
100 -26z"/>
<path d="M2810 1895 l0 -55 45 0 45 0 0 -240 0 -240 65 0 65 0 0 295 0 295
-110 0 -110 0 0 -55z"/>
<path d="M897 1823 c-3 -5 37 -105 89 -223 51 -118 94 -220 94 -226 0 -6 -16
-47 -36 -90 -20 -44 -42 -94 -50 -112 l-13 -33 70 3 70 3 139 335 c76 184 135
339 131 343 -5 4 -35 7 -67 5 l-59 -3 -55 -147 c-30 -81 -57 -148 -60 -148 -3
0 -29 62 -59 138 -30 75 -58 143 -64 150 -10 13 -123 17 -130 5z"/>
</g>
</svg>
